<svg xmlns="http://www.w3.org/2000/svg" viewBox="0 0 200 106.43"><defs><style>.cls-1,.cls-2{fill:#fff;}.cls-1{fill-rule:evenodd;}</style></defs><g id="Layer_2" data-name="Layer 2"><g id="ETUSIVU"><g id="TOP"><g id="TEP_logo" data-name="TEP logo"><polygon class="cls-1" points="43.85 32.33 43.9 80.56 64.01 80.56 63.96 33.99 43.85 32.33"/><polygon class="cls-1" points="81.44 35.42 81.48 80.56 121.56 80.56 121.56 66.64 98.87 66.64 98.87 52.94 115.06 52.94 115.06 39.06 98.87 39.01 98.87 36.89 81.44 35.42"/><path class="cls-1" d="M126.91,39.2V80.56h17.24V66.45c13-1.38,24.26-5.53,30.35-23.29l-18-1.47c-2.86,6.18-8.07,7.7-12.63,7.88V40.63Z"/><path class="cls-2" d="M48,106.2l-3.88-6c-.37,0-.92,0-1.61,0v6H39.84V91.77c.14,0,.69,0,1.66-.09s1.76-.1,2.36-.1c3.68,0,5.48,1.43,5.48,4.29a3.87,3.87,0,0,1-.73,2.31,4.27,4.27,0,0,1-1.9,1.52L51,106.2ZM42.52,94v4a9.62,9.62,0,0,0,1.1.05A4.55,4.55,0,0,0,46,97.58a1.93,1.93,0,0,0,.73-1.75,1.51,1.51,0,0,0-.83-1.48,5.43,5.43,0,0,0-2.49-.41,6.71,6.71,0,0,0-.87,0Zm32.83,4.84a8.32,8.32,0,0,1,1.71-5.21,5.47,5.47,0,0,1,4.52-2.12,5.84,5.84,0,0,1,4.75,1.94A8.06,8.06,0,0,1,88,98.82a8.4,8.4,0,0,1-1.71,5.58,6.09,6.09,0,0,1-4.89,2,5.31,5.31,0,0,1-4.47-2,9,9,0,0,1-1.57-5.58Zm2.68,0a7.45,7.45,0,0,0,.87,4,2.73,2.73,0,0,0,2.49,1.38,3.33,3.33,0,0,0,2.91-1.38,6.39,6.39,0,0,0,1-4c0-3.36-1.24-5.07-3.73-5.07A2.94,2.94,0,0,0,79,95.13,6.74,6.74,0,0,0,78,98.82Zm35.37,0a8.08,8.08,0,0,1,1.7-5.21,5.41,5.41,0,0,1,4.52-2.12,5.9,5.9,0,0,1,4.75,1.94A8,8,0,0,1,126,98.82a8.41,8.41,0,0,1-1.75,5.58,6.09,6.09,0,0,1-4.89,2,5.23,5.23,0,0,1-4.43-2,8.72,8.72,0,0,1-1.56-5.58Zm2.67,0a8,8,0,0,0,.83,4,2.82,2.82,0,0,0,2.49,1.38,3.45,3.45,0,0,0,3-1.38,6.66,6.66,0,0,0,1-4c0-3.36-1.25-5.07-3.74-5.07A3.06,3.06,0,0,0,117,95.13a6.75,6.75,0,0,0-.88,3.69ZM154.72,94v3.36h5.07v2.22h-5.07v6.59h-2.59V91.77h9.55V94Z"/><polygon class="cls-1" points="126.72 29.14 198.29 41.04 126.72 35.28 126.72 29.14"/><polygon class="cls-1" points="81.44 21.63 121.28 28.27 121.28 34.82 81.44 31.64 81.44 21.63"/><polygon class="cls-1" points="30.2 13.1 76 20.71 76 31.17 0 25.04 30.2 13.1"/><polygon class="cls-1" points="126.72 17.39 200 37.81 126.72 25.41 126.72 17.39"/><polygon class="cls-1" points="81.44 4.8 121.28 15.86 121.28 24.49 81.44 17.75 81.44 4.8"/><polygon class="cls-1" points="64.33 0 76 3.23 76 16.83 36.62 10.14 64.33 0"/></g></g></g></g></svg>